<mxfile host="app.diagrams.net" modified="2024-06-10T16:34:46.050Z" agent="Mozilla/5.0 (Windows NT 10.0; Win64; x64) AppleWebKit/537.36 (KHTML, like Gecko) Chrome/125.0.0.0 Safari/537.36" etag="ThdJolm9jykx34KI0pH4" version="24.5.2" type="device">
  <diagram name="Pagina-1" id="-uEB42LB0BKhDS_B3QM1">
    <mxGraphModel dx="3695" dy="2645" grid="1" gridSize="10" guides="1" tooltips="1" connect="1" arrows="1" fold="1" page="1" pageScale="1" pageWidth="827" pageHeight="1169" math="0" shadow="0">
      <root>
        <mxCell id="0" />
        <mxCell id="1" parent="0" />
        <mxCell id="jhw5LRO7hmOWpkIhC6q3-14" style="edgeStyle=none;rounded=0;orthogonalLoop=1;jettySize=auto;html=1;exitX=0.75;exitY=1;exitDx=0;exitDy=0;entryX=0.75;entryY=0;entryDx=0;entryDy=0;" edge="1" parent="1" source="jhw5LRO7hmOWpkIhC6q3-3" target="jhw5LRO7hmOWpkIhC6q3-4">
          <mxGeometry relative="1" as="geometry" />
        </mxCell>
        <mxCell id="jhw5LRO7hmOWpkIhC6q3-15" style="edgeStyle=none;rounded=0;orthogonalLoop=1;jettySize=auto;html=1;exitX=0;exitY=0.75;exitDx=0;exitDy=0;entryX=1;entryY=0.75;entryDx=0;entryDy=0;" edge="1" parent="1" source="jhw5LRO7hmOWpkIhC6q3-3" target="jhw5LRO7hmOWpkIhC6q3-6">
          <mxGeometry relative="1" as="geometry" />
        </mxCell>
        <mxCell id="jhw5LRO7hmOWpkIhC6q3-17" style="edgeStyle=none;rounded=0;orthogonalLoop=1;jettySize=auto;html=1;exitX=1;exitY=0.25;exitDx=0;exitDy=0;entryX=0;entryY=0.25;entryDx=0;entryDy=0;" edge="1" parent="1" source="jhw5LRO7hmOWpkIhC6q3-3" target="jhw5LRO7hmOWpkIhC6q3-5">
          <mxGeometry relative="1" as="geometry" />
        </mxCell>
        <mxCell id="jhw5LRO7hmOWpkIhC6q3-24" style="edgeStyle=none;rounded=0;orthogonalLoop=1;jettySize=auto;html=1;exitX=0.25;exitY=0;exitDx=0;exitDy=0;entryX=0.25;entryY=1;entryDx=0;entryDy=0;" edge="1" parent="1" source="jhw5LRO7hmOWpkIhC6q3-3" target="jhw5LRO7hmOWpkIhC6q3-8">
          <mxGeometry relative="1" as="geometry" />
        </mxCell>
        <mxCell id="jhw5LRO7hmOWpkIhC6q3-3" value="GOBLIN ROOM" style="whiteSpace=wrap;html=1;align=right;verticalAlign=top;" vertex="1" parent="1">
          <mxGeometry x="240" y="520" width="280" height="122" as="geometry" />
        </mxCell>
        <mxCell id="jhw5LRO7hmOWpkIhC6q3-13" style="edgeStyle=none;rounded=0;orthogonalLoop=1;jettySize=auto;html=1;exitX=0.25;exitY=0;exitDx=0;exitDy=0;entryX=0.25;entryY=1;entryDx=0;entryDy=0;" edge="1" parent="1" source="jhw5LRO7hmOWpkIhC6q3-4" target="jhw5LRO7hmOWpkIhC6q3-3">
          <mxGeometry relative="1" as="geometry" />
        </mxCell>
        <mxCell id="jhw5LRO7hmOWpkIhC6q3-4" value="START ROOM" style="whiteSpace=wrap;html=1;align=right;verticalAlign=top;" vertex="1" parent="1">
          <mxGeometry x="240" y="800" width="280" height="122" as="geometry" />
        </mxCell>
        <mxCell id="jhw5LRO7hmOWpkIhC6q3-18" style="edgeStyle=none;rounded=0;orthogonalLoop=1;jettySize=auto;html=1;exitX=0;exitY=0.75;exitDx=0;exitDy=0;entryX=1;entryY=0.75;entryDx=0;entryDy=0;" edge="1" parent="1" source="jhw5LRO7hmOWpkIhC6q3-5" target="jhw5LRO7hmOWpkIhC6q3-3">
          <mxGeometry relative="1" as="geometry" />
        </mxCell>
        <mxCell id="jhw5LRO7hmOWpkIhC6q3-19" style="edgeStyle=none;rounded=0;orthogonalLoop=1;jettySize=auto;html=1;exitX=0.25;exitY=0;exitDx=0;exitDy=0;entryX=0.25;entryY=1;entryDx=0;entryDy=0;" edge="1" parent="1" source="jhw5LRO7hmOWpkIhC6q3-5" target="jhw5LRO7hmOWpkIhC6q3-9">
          <mxGeometry relative="1" as="geometry" />
        </mxCell>
        <mxCell id="jhw5LRO7hmOWpkIhC6q3-5" value="MARGLARG ROOM" style="whiteSpace=wrap;html=1;align=right;verticalAlign=top;" vertex="1" parent="1">
          <mxGeometry x="680" y="520" width="280" height="122" as="geometry" />
        </mxCell>
        <mxCell id="jhw5LRO7hmOWpkIhC6q3-16" style="edgeStyle=none;rounded=0;orthogonalLoop=1;jettySize=auto;html=1;exitX=1;exitY=0.25;exitDx=0;exitDy=0;entryX=0;entryY=0.25;entryDx=0;entryDy=0;" edge="1" parent="1" source="jhw5LRO7hmOWpkIhC6q3-6" target="jhw5LRO7hmOWpkIhC6q3-3">
          <mxGeometry relative="1" as="geometry" />
        </mxCell>
        <mxCell id="jhw5LRO7hmOWpkIhC6q3-6" value="GIANT SPIDER" style="whiteSpace=wrap;html=1;align=right;verticalAlign=top;" vertex="1" parent="1">
          <mxGeometry x="-200" y="520" width="280" height="122" as="geometry" />
        </mxCell>
        <mxCell id="jhw5LRO7hmOWpkIhC6q3-29" style="edgeStyle=none;rounded=0;orthogonalLoop=1;jettySize=auto;html=1;exitX=1;exitY=0.25;exitDx=0;exitDy=0;entryX=0;entryY=0.25;entryDx=0;entryDy=0;" edge="1" parent="1" source="jhw5LRO7hmOWpkIhC6q3-7" target="jhw5LRO7hmOWpkIhC6q3-8">
          <mxGeometry relative="1" as="geometry" />
        </mxCell>
        <mxCell id="jhw5LRO7hmOWpkIhC6q3-30" style="edgeStyle=none;rounded=0;orthogonalLoop=1;jettySize=auto;html=1;exitX=0.5;exitY=0;exitDx=0;exitDy=0;entryX=0.5;entryY=1;entryDx=0;entryDy=0;" edge="1" parent="1" source="jhw5LRO7hmOWpkIhC6q3-7" target="jhw5LRO7hmOWpkIhC6q3-12">
          <mxGeometry relative="1" as="geometry" />
        </mxCell>
        <mxCell id="jhw5LRO7hmOWpkIhC6q3-7" value="LOOT ROOM" style="whiteSpace=wrap;html=1;align=right;verticalAlign=top;" vertex="1" parent="1">
          <mxGeometry x="-200" y="240" width="280" height="122" as="geometry" />
        </mxCell>
        <mxCell id="jhw5LRO7hmOWpkIhC6q3-25" style="edgeStyle=none;rounded=0;orthogonalLoop=1;jettySize=auto;html=1;exitX=0.75;exitY=1;exitDx=0;exitDy=0;entryX=0.75;entryY=0;entryDx=0;entryDy=0;" edge="1" parent="1" source="jhw5LRO7hmOWpkIhC6q3-8" target="jhw5LRO7hmOWpkIhC6q3-3">
          <mxGeometry relative="1" as="geometry" />
        </mxCell>
        <mxCell id="jhw5LRO7hmOWpkIhC6q3-26" style="edgeStyle=none;rounded=0;orthogonalLoop=1;jettySize=auto;html=1;exitX=0.25;exitY=0;exitDx=0;exitDy=0;entryX=0.25;entryY=1;entryDx=0;entryDy=0;" edge="1" parent="1" source="jhw5LRO7hmOWpkIhC6q3-8" target="jhw5LRO7hmOWpkIhC6q3-11">
          <mxGeometry relative="1" as="geometry" />
        </mxCell>
        <mxCell id="jhw5LRO7hmOWpkIhC6q3-28" style="edgeStyle=none;rounded=0;orthogonalLoop=1;jettySize=auto;html=1;exitX=0;exitY=0.75;exitDx=0;exitDy=0;entryX=1;entryY=0.75;entryDx=0;entryDy=0;" edge="1" parent="1" source="jhw5LRO7hmOWpkIhC6q3-8" target="jhw5LRO7hmOWpkIhC6q3-7">
          <mxGeometry relative="1" as="geometry" />
        </mxCell>
        <mxCell id="jhw5LRO7hmOWpkIhC6q3-8" value="LOOT ROOM" style="whiteSpace=wrap;html=1;align=right;verticalAlign=top;" vertex="1" parent="1">
          <mxGeometry x="240" y="240" width="280" height="122" as="geometry" />
        </mxCell>
        <mxCell id="jhw5LRO7hmOWpkIhC6q3-20" style="edgeStyle=none;rounded=0;orthogonalLoop=1;jettySize=auto;html=1;exitX=0.75;exitY=1;exitDx=0;exitDy=0;entryX=0.75;entryY=0;entryDx=0;entryDy=0;" edge="1" parent="1" source="jhw5LRO7hmOWpkIhC6q3-9" target="jhw5LRO7hmOWpkIhC6q3-5">
          <mxGeometry relative="1" as="geometry" />
        </mxCell>
        <mxCell id="jhw5LRO7hmOWpkIhC6q3-21" style="edgeStyle=none;rounded=0;orthogonalLoop=1;jettySize=auto;html=1;exitX=0.25;exitY=0;exitDx=0;exitDy=0;entryX=0.25;entryY=1;entryDx=0;entryDy=0;" edge="1" parent="1" source="jhw5LRO7hmOWpkIhC6q3-9" target="jhw5LRO7hmOWpkIhC6q3-10">
          <mxGeometry relative="1" as="geometry" />
        </mxCell>
        <mxCell id="jhw5LRO7hmOWpkIhC6q3-9" value="LOOTING ROOM" style="whiteSpace=wrap;html=1;verticalAlign=top;align=right;" vertex="1" parent="1">
          <mxGeometry x="680" y="240" width="280" height="122" as="geometry" />
        </mxCell>
        <mxCell id="jhw5LRO7hmOWpkIhC6q3-22" style="edgeStyle=none;rounded=0;orthogonalLoop=1;jettySize=auto;html=1;exitX=0.75;exitY=1;exitDx=0;exitDy=0;entryX=0.75;entryY=0;entryDx=0;entryDy=0;" edge="1" parent="1" source="jhw5LRO7hmOWpkIhC6q3-10" target="jhw5LRO7hmOWpkIhC6q3-9">
          <mxGeometry relative="1" as="geometry" />
        </mxCell>
        <mxCell id="jhw5LRO7hmOWpkIhC6q3-10" value="DRAGON ROOM" style="whiteSpace=wrap;html=1;align=right;verticalAlign=top;" vertex="1" parent="1">
          <mxGeometry x="680" y="-40" width="280" height="122" as="geometry" />
        </mxCell>
        <mxCell id="jhw5LRO7hmOWpkIhC6q3-27" style="edgeStyle=none;rounded=0;orthogonalLoop=1;jettySize=auto;html=1;exitX=0.75;exitY=1;exitDx=0;exitDy=0;entryX=0.75;entryY=0;entryDx=0;entryDy=0;" edge="1" parent="1" source="jhw5LRO7hmOWpkIhC6q3-11" target="jhw5LRO7hmOWpkIhC6q3-8">
          <mxGeometry relative="1" as="geometry" />
        </mxCell>
        <mxCell id="jhw5LRO7hmOWpkIhC6q3-11" value="MONSTER ROOM" style="whiteSpace=wrap;html=1;align=right;verticalAlign=top;" vertex="1" parent="1">
          <mxGeometry x="240" y="-40" width="280" height="122" as="geometry" />
        </mxCell>
        <mxCell id="jhw5LRO7hmOWpkIhC6q3-32" style="edgeStyle=none;rounded=0;orthogonalLoop=1;jettySize=auto;html=1;exitX=0.5;exitY=0;exitDx=0;exitDy=0;entryX=0.5;entryY=1;entryDx=0;entryDy=0;" edge="1" parent="1" source="jhw5LRO7hmOWpkIhC6q3-12" target="jhw5LRO7hmOWpkIhC6q3-31">
          <mxGeometry relative="1" as="geometry" />
        </mxCell>
        <mxCell id="jhw5LRO7hmOWpkIhC6q3-12" value="BOSS FIGHT" style="whiteSpace=wrap;html=1;align=right;verticalAlign=top;" vertex="1" parent="1">
          <mxGeometry x="-200" y="-40" width="280" height="122" as="geometry" />
        </mxCell>
        <mxCell id="jhw5LRO7hmOWpkIhC6q3-31" value="VICTORY ROOM" style="whiteSpace=wrap;html=1;align=right;horizontal=1;verticalAlign=top;" vertex="1" parent="1">
          <mxGeometry x="-200" y="-320" width="280" height="122" as="geometry" />
        </mxCell>
        <mxCell id="jhw5LRO7hmOWpkIhC6q3-39" value="Key 4" style="text;html=1;align=center;verticalAlign=middle;resizable=0;points=[];autosize=1;strokeColor=none;fillColor=none;" vertex="1" parent="1">
          <mxGeometry x="755" y="430" width="50" height="30" as="geometry" />
        </mxCell>
        <mxCell id="jhw5LRO7hmOWpkIhC6q3-40" value="Key 5" style="text;html=1;align=center;verticalAlign=middle;resizable=0;points=[];autosize=1;strokeColor=none;fillColor=none;" vertex="1" parent="1">
          <mxGeometry x="755" y="150" width="50" height="30" as="geometry" />
        </mxCell>
        <mxCell id="jhw5LRO7hmOWpkIhC6q3-41" value="Key 1" style="text;html=1;align=center;verticalAlign=middle;resizable=0;points=[];autosize=1;strokeColor=none;fillColor=none;" vertex="1" parent="1">
          <mxGeometry x="320" y="708" width="50" height="30" as="geometry" />
        </mxCell>
        <mxCell id="jhw5LRO7hmOWpkIhC6q3-42" value="Key 2" style="text;html=1;align=center;verticalAlign=middle;resizable=0;points=[];autosize=1;strokeColor=none;fillColor=none;" vertex="1" parent="1">
          <mxGeometry x="130" y="612" width="50" height="30" as="geometry" />
        </mxCell>
        <mxCell id="jhw5LRO7hmOWpkIhC6q3-43" value="Key 3" style="text;html=1;align=center;verticalAlign=middle;resizable=0;points=[];autosize=1;strokeColor=none;fillColor=none;" vertex="1" parent="1">
          <mxGeometry x="580" y="555" width="50" height="30" as="geometry" />
        </mxCell>
        <mxCell id="jhw5LRO7hmOWpkIhC6q3-45" value="1" style="ellipse;whiteSpace=wrap;html=1;" vertex="1" parent="1">
          <mxGeometry x="230" y="790" width="20" height="20" as="geometry" />
        </mxCell>
        <mxCell id="jhw5LRO7hmOWpkIhC6q3-46" value="2" style="ellipse;whiteSpace=wrap;html=1;" vertex="1" parent="1">
          <mxGeometry x="230" y="510" width="20" height="20" as="geometry" />
        </mxCell>
        <mxCell id="jhw5LRO7hmOWpkIhC6q3-47" value="3" style="ellipse;whiteSpace=wrap;html=1;" vertex="1" parent="1">
          <mxGeometry x="-210" y="510" width="20" height="20" as="geometry" />
        </mxCell>
        <mxCell id="jhw5LRO7hmOWpkIhC6q3-48" value="4" style="ellipse;whiteSpace=wrap;html=1;" vertex="1" parent="1">
          <mxGeometry x="670" y="510" width="20" height="20" as="geometry" />
        </mxCell>
        <mxCell id="jhw5LRO7hmOWpkIhC6q3-49" value="5" style="ellipse;whiteSpace=wrap;html=1;" vertex="1" parent="1">
          <mxGeometry x="670" y="230" width="20" height="20" as="geometry" />
        </mxCell>
        <mxCell id="jhw5LRO7hmOWpkIhC6q3-50" value="6" style="ellipse;whiteSpace=wrap;html=1;" vertex="1" parent="1">
          <mxGeometry x="670" y="-50" width="20" height="20" as="geometry" />
        </mxCell>
        <mxCell id="jhw5LRO7hmOWpkIhC6q3-51" value="7" style="ellipse;whiteSpace=wrap;html=1;" vertex="1" parent="1">
          <mxGeometry x="230" y="230" width="20" height="20" as="geometry" />
        </mxCell>
        <mxCell id="jhw5LRO7hmOWpkIhC6q3-52" value="8" style="ellipse;whiteSpace=wrap;html=1;" vertex="1" parent="1">
          <mxGeometry x="230" y="-50" width="20" height="20" as="geometry" />
        </mxCell>
        <mxCell id="jhw5LRO7hmOWpkIhC6q3-53" value="9" style="ellipse;whiteSpace=wrap;html=1;" vertex="1" parent="1">
          <mxGeometry x="-210" y="230" width="20" height="20" as="geometry" />
        </mxCell>
        <mxCell id="jhw5LRO7hmOWpkIhC6q3-54" value="10" style="ellipse;whiteSpace=wrap;html=1;" vertex="1" parent="1">
          <mxGeometry x="-210" y="-50" width="20" height="20" as="geometry" />
        </mxCell>
        <mxCell id="jhw5LRO7hmOWpkIhC6q3-55" value="11" style="ellipse;whiteSpace=wrap;html=1;" vertex="1" parent="1">
          <mxGeometry x="-210" y="-330" width="20" height="20" as="geometry" />
        </mxCell>
        <mxCell id="jhw5LRO7hmOWpkIhC6q3-56" value="&lt;ol style=&quot;font-size: 10px;&quot;&gt;&lt;li style=&quot;font-size: 10px;&quot;&gt;healthPotion (+10hp)&lt;/li&gt;&lt;li style=&quot;font-size: 10px;&quot;&gt;sword (atk, x2, +4)&lt;/li&gt;&lt;li style=&quot;font-size: 10px;&quot;&gt;key1&lt;/li&gt;&lt;/ol&gt;" style="rounded=1;whiteSpace=wrap;html=1;align=left;verticalAlign=top;fontSize=10;" vertex="1" parent="1">
          <mxGeometry x="250" y="830" width="260" height="80" as="geometry" />
        </mxCell>
        <mxCell id="jhw5LRO7hmOWpkIhC6q3-57" value="&lt;ol style=&quot;font-size: 10px;&quot;&gt;&lt;li&gt;apple(+5hp)&lt;/li&gt;&lt;li&gt;key2&lt;/li&gt;&lt;/ol&gt;" style="rounded=1;whiteSpace=wrap;html=1;align=left;verticalAlign=top;" vertex="1" parent="1">
          <mxGeometry x="250" y="552" width="260" height="80" as="geometry" />
        </mxCell>
        <mxCell id="jhw5LRO7hmOWpkIhC6q3-58" value="&lt;ol style=&quot;font-size: 10px;&quot;&gt;&lt;li&gt;&lt;font style=&quot;font-size: 10px;&quot;&gt;spiderEye&lt;/font&gt;&lt;/li&gt;&lt;li&gt;&lt;font style=&quot;font-size: 10px;&quot;&gt;spiderHelmet (def, x0, +5)&lt;/font&gt;&lt;/li&gt;&lt;li&gt;&lt;font style=&quot;font-size: 10px;&quot;&gt;blackSword (atk, x1, +10)&lt;/font&gt;&lt;/li&gt;&lt;li&gt;&lt;font style=&quot;font-size: 10px;&quot;&gt;key3&lt;/font&gt;&lt;/li&gt;&lt;/ol&gt;" style="rounded=1;whiteSpace=wrap;html=1;align=left;verticalAlign=top;" vertex="1" parent="1">
          <mxGeometry x="-190" y="552" width="260" height="80" as="geometry" />
        </mxCell>
        <mxCell id="jhw5LRO7hmOWpkIhC6q3-59" value="&lt;ol style=&quot;font-size: 10px;&quot;&gt;&lt;li&gt;key4&lt;/li&gt;&lt;/ol&gt;" style="rounded=1;whiteSpace=wrap;html=1;align=left;verticalAlign=top;" vertex="1" parent="1">
          <mxGeometry x="690" y="551" width="260" height="80" as="geometry" />
        </mxCell>
        <mxCell id="jhw5LRO7hmOWpkIhC6q3-60" value="&lt;ol style=&quot;font-size: 10px;&quot;&gt;&lt;li&gt;gingerRoot (usable: +3hp, def +2)&lt;/li&gt;&lt;li&gt;woodArmor (def: x1, +8)&lt;/li&gt;&lt;li&gt;woodSword (atk, x1, +7)&lt;/li&gt;&lt;/ol&gt;" style="rounded=1;whiteSpace=wrap;html=1;align=left;verticalAlign=top;" vertex="1" parent="1">
          <mxGeometry x="690" y="270" width="260" height="80" as="geometry" />
        </mxCell>
        <mxCell id="jhw5LRO7hmOWpkIhC6q3-61" value="&lt;ol style=&quot;font-size: 10px;&quot;&gt;&lt;li&gt;key6&lt;/li&gt;&lt;/ol&gt;" style="rounded=1;whiteSpace=wrap;html=1;align=left;verticalAlign=top;" vertex="1" parent="1">
          <mxGeometry x="690" y="-10" width="260" height="80" as="geometry" />
        </mxCell>
        <mxCell id="jhw5LRO7hmOWpkIhC6q3-62" value="&lt;ol style=&quot;font-size: 10px;&quot;&gt;&lt;li&gt;boh&lt;/li&gt;&lt;/ol&gt;" style="rounded=1;whiteSpace=wrap;html=1;align=left;verticalAlign=top;" vertex="1" parent="1">
          <mxGeometry x="250" y="270" width="260" height="80" as="geometry" />
        </mxCell>
        <mxCell id="jhw5LRO7hmOWpkIhC6q3-63" value="&lt;ol style=&quot;font-size: 10px;&quot;&gt;&lt;li&gt;key6&lt;/li&gt;&lt;/ol&gt;" style="rounded=1;whiteSpace=wrap;html=1;align=left;verticalAlign=top;" vertex="1" parent="1">
          <mxGeometry x="250" y="-10" width="260" height="80" as="geometry" />
        </mxCell>
        <mxCell id="jhw5LRO7hmOWpkIhC6q3-64" value="key6" style="text;html=1;align=center;verticalAlign=middle;resizable=0;points=[];autosize=1;strokeColor=none;fillColor=none;" vertex="1" parent="1">
          <mxGeometry x="130" y="340" width="50" height="30" as="geometry" />
        </mxCell>
        <mxCell id="jhw5LRO7hmOWpkIhC6q3-66" value="&lt;ol style=&quot;font-size: 10px;&quot;&gt;&lt;li&gt;key7&lt;/li&gt;&lt;li&gt;bigHammer&lt;/li&gt;&lt;li&gt;healthPotion&lt;/li&gt;&lt;li&gt;darkArmor&lt;/li&gt;&lt;/ol&gt;" style="rounded=1;whiteSpace=wrap;html=1;align=left;verticalAlign=top;" vertex="1" parent="1">
          <mxGeometry x="-190" y="270" width="260" height="80" as="geometry" />
        </mxCell>
        <mxCell id="jhw5LRO7hmOWpkIhC6q3-67" value="&lt;ol style=&quot;font-size: 10px;&quot;&gt;&lt;li&gt;&lt;br&gt;&lt;/li&gt;&lt;/ol&gt;" style="rounded=1;whiteSpace=wrap;html=1;align=left;verticalAlign=top;" vertex="1" parent="1">
          <mxGeometry x="-190" y="-10" width="260" height="80" as="geometry" />
        </mxCell>
      </root>
    </mxGraphModel>
  </diagram>
</mxfile>
